<svg xmlns="http://www.w3.org/2000/svg" viewBox="0 0 256 256">
    <defs>
        <linearGradient id="postman-gradient" x1="0%" y1="0%" x2="100%" y2="100%">
            <stop offset="0%" style="stop-color:#FF6C37"/>
            <stop offset="100%" style="stop-color:#FF3D00"/>
        </linearGradient>
    </defs>
    <path fill="url(#postman-gradient)" d="M128 0C57.3 0 0 57.3 0 128s57.3 128 128 128 128-57.3 128-128S198.7 0 128 0zm65 145l-50 50c-9.4 9.4-24.6 9.4-33.9 0l-50-50c-9.4-9.4-9.4-24.6 0-33.9l50-50c9.4-9.4 24.6-9.4 33.9 0l50 50c9.4 9.3 9.4 24.5 0 33.9z"/>
    <path fill="#FFF" d="M161 111c-9.4-9.4-24.6-9.4-33.9 0l-50 50c-9.4 9.4-9.4 24.6 0 33.9l50-50c9.3-9.4 24.5-9.4 33.9 0l50-50c-9.4-9.4-24.6-9.4-33.9 0l-16.1 16.1z"/>
</svg> 